#!OML:ASF F:\VICON\USERDATA\INSTALL\Justin_Nancy\Justin_Nancy.ASF
:FULLY-SPECIFIED
:DEGREES
504
root 16.5414 17.573 15.6567 176.651 93.5217 174.593
lowerback 5.14397 1.77951 -1.14653
upperback -0.701806 2.33738 0.974171
thorax -3.69473 1.19711 1.45327
lowerneck -16.6144 -4.03379 -9.46155
upperneck 23.4187 -4.08132 5.07357
head 10.5808 -2.0175 2.84849
rclavicle 2.40157e-014 9.93923e-015
rhumerus -28.9397 -12.1844 -81.1489
rradius 34.3255
rwrist 2.01766
rhand -15.0371 11.0194
rfingers 7.12502
rthumb 11.129 -18.6655
lclavicle 2.40157e-014 9.93923e-015
lhumerus -34.9368 19.7021 78.5562
lradius 21.1854
lwrist -12.2618
lhand -16.6316 24.3014
lfingers 7.12502
lthumb 9.59079 54.0631
rfemur 7.2847 4.32126 23.4431
rtibia 33.2699
rfoot -1.48361 -2.19398
rtoes -2.54599
lfemur -22.4359 1.79718 -22.6302
ltibia 21.5455
lfoot 0.49747 -1.03175
ltoes 5.56903
505
root 16.6949 17.591 15.6401 182.588 92.9345 180.504
lowerback 4.99208 1.44563 -1.3709
upperback -0.686694 1.87858 0.963414
thorax -3.58409 0.972639 1.61097
lowerneck -16.7675 -3.93086 -9.62557
upperneck 23.3895 -3.82627 4.88107
head 10.5796 -1.93806 2.84083
rclavicle -1.0051e-014 4.96962e-015
rhumerus -29.0283 -11.949 -81.0484
rradius 33.8019
rwrist 1.85652
rhand -15.8801 10.2499
rfingers 7.12502
rthumb 10.3158 -19.4771
lclavicle -1.0051e-014 4.96962e-015
lhumerus -34.8078 19.7054 78.4843
lradius 21.1906
lwrist -11.4666
lhand -16.4598 24.4447
lfingers 7.12502
lthumb 9.75655 54.1987
rfemur 6.15705 3.89388 22.9594
rtibia 35.3992
rfoot 0.901684 -1.87107
rtoes -0.60355
lfemur -21.8639 1.49718 -23.1943
ltibia 21.4176
lfoot -0.0690348 -1.27271
ltoes 4.51756
506
root 16.8459 17.6039 15.6152 191.544 92.3232 189.55
lowerback 4.99938 1.08859 -1.55094
upperback -0.642753 1.38975 0.931989
thorax -3.52688 0.731908 1.72011
lowerneck -16.9843 -3.80276 -9.5905
upperneck 23.4462 -3.58426 4.6828
head 10.6178 -1.84711 2.7971
rclavicle -1.82633e-015 -8.34896e-015
rhumerus -29.1399 -15.3093 -79.3084
rradius 31.9466
rwrist 8.74345
rhand -11.4807 14.8992
rfingers 7.12502
rthumb 14.5574 -14.57
lclavicle -1.82633e-015 -8.34896e-015
lhumerus -34.6407 19.8339 78.4285
lradius 21.1329
lwrist -10.6655
lhand -16.5014 24.518
lfingers 7.12502
lthumb 9.7164 54.2738
rfemur 5.07389 3.09592 22.2988
rtibia 37.6244
rfoot 3.60708 -0.987822
rtoes 3.18521
lfemur -21.1723 2.11569 -23.9357
ltibia 21.1774
lfoot -0.684708 -2.52444
ltoes 4.42892
507
root 16.9975 17.6173 15.5943 200.913 92.082 199.069
lowerback 5.01714 1.02851 -1.62474
upperback -0.589255 1.29677 0.716829
thorax -3.47412 0.683758 1.54729
lowerneck -16.8095 -3.83107 -9.20237
upperneck 23.1499 -3.72409 4.56513
head 10.4748 -1.89133 2.6661
rclavicle 3.29237e-015 0
rhumerus -29.4514 -15.7288 -79.6016
rradius 31.7434
rwrist 6.98694
rhand -12.7463 13.177
rfingers 7.12502
rthumb 13.3377 -16.3761
lclavicle 3.29237e-015 0
lhumerus -34.4725 20.4881 78.0421
lradius 20.9714
lwrist -11.7244
lhand -17.6514 25.0498
lfingers 7.12502
lthumb 8.60673 54.8544
rfemur 4.02015 2.61374 21.7328
rtibia 39.9029
rfoot 6.20102 -0.298145
rtoes 4.60731
lfemur -20.3222 2.59099 -24.4674
ltibia 20.8768
lfoot -1.18777 -3.22726
ltoes 4.21075
508
root 17.1449 17.6343 15.5841 204.798 92.1957 203.014
lowerback 4.96292 1.17021 -1.6857
upperback -0.559516 1.4772 0.558527
thorax -3.41735 0.772301 1.40496
lowerneck -16.6872 -3.99471 -9.24822
upperneck 22.9015 -3.98415 4.67624
head 10.3848 -2.00256 2.67365
rclavicle 2.12824e-014 9.74045e-015
rhumerus -29.8476 -16.5402 -79.509
rradius 31.3396
rwrist 6.29
rhand -13.4421 12.4735
rfingers 7.12502
rthumb 12.667 -17.1224
lclavicle 2.12824e-014 9.74045e-015
lhumerus -34.2186 21.0383 77.7411
lradius 20.8092
lwrist -12.5484
lhand -17.8973 24.7144
lfingers 7.12502
lthumb 8.36944 54.5285
rfemur 2.7807 2.82987 21.4761
rtibia 42.2152
rfoot 8.7779 -0.229001
rtoes 5.98472
lfemur -19.4717 2.18605 -24.5951
ltibia 20.538
lfoot -1.62628 -2.79163
ltoes 4.22573
509
root 17.2916 17.6527 15.5723 210.457 92.4163 208.798
lowerback 4.97452 1.28112 -1.78556
upperback -0.48902 1.61202 0.343505
thorax -3.35267 0.838137 1.22916
lowerneck -16.8727 -4.09819 -9.2563
upperneck 22.9689 -4.13157 4.74866
head 10.4581 -2.06151 2.67879
rclavicle 1.63128e-014 -5.96354e-015
rhumerus -30.2234 -17.3445 -79.4791
rradius 30.9741
rwrist 5.91133
rhand -13.7475 11.9692
rfingers 7.12502
rthumb 12.3726 -17.6447
lclavicle 1.63128e-014 -5.96354e-015
lhumerus -33.6621 20.3219 77.7553
lradius 20.6914
lwrist -11.375
lhand -16.5477 23.983
lfingers 7.12502
lthumb 9.67171 53.7409
rfemur 1.55945 2.84222 20.9916
rtibia 44.5318
rfoot 11.1757 0.241754
rtoes 6.30083
lfemur -18.6307 2.07305 -24.9104
ltibia 20.3381
lfoot -2.1167 -2.61747
ltoes 5.36293
510
root 17.4421 17.6735 15.5555 214.388 92.6337 212.638
lowerback 4.75498 1.18908 -1.99225
upperback -0.479301 1.48124 0.338453
thorax -3.21974 0.775561 1.3549
lowerneck -17.1264 -3.98642 -9.27263
upperneck 23.0424 -3.89141 4.53212
head 10.5109 -1.97751 2.63649
rclavicle 8.49804e-015 0
rhumerus -30.4152 -17.6993 -79.3565
rradius 30.4566
rwrist 6.21113
rhand -13.5109 11.7438
rfingers 7.12502
rthumb 12.6007 -17.8562
lclavicle 8.49804e-015 0
lhumerus -33.3413 20.2627 77.7759
lradius 20.579
lwrist -10.9804
lhand -15.319 23.5433
lfingers 7.12502
lthumb 10.8571 53.2426
rfemur 0.0326422 2.71074 20.45
rtibia 46.9491
rfoot 13.1904 0.78192
rtoes 6.51245
lfemur -17.9183 2.2736 -25.2678
ltibia 19.9165
lfoot -2.44897 -2.7305
ltoes 6.16161
511
root 17.5855 17.6989 15.5208 195.003 93.5245 192.903
lowerback 4.3365 1.42222 -1.15557
upperback -0.514604 1.85163 0.546364
thorax -3.01507 0.946377 1.08186
lowerneck -17.3358 -3.87921 -9.43581
upperneck 22.9361 -3.66605 4.48798
head 10.4977 -1.8933 2.6768
rclavicle -8.72168e-015 -1.98785e-016
rhumerus -30.3541 -16.1499 -79.9654
rradius 30.3649
rwrist 3.24611
rhand -15.3032 9.56196
rfingers 7.12502
rthumb 10.8723 -20.1366
lclavicle -8.72168e-015 -1.98785e-016
lhumerus -33.1044 20.5617 77.8879
lradius 20.535
lwrist -11.7149
lhand -15.255 23.4845
lfingers 7.12502
lthumb 10.9188 53.1806
rfemur -1.92233 3.86365 20.7995
rtibia 49.3519
rfoot 15.0656 0.573273
rtoes 10.2052
lfemur -17.3494 1.5366 -24.4709
ltibia 19.4937
lfoot -2.62141 -0.821216
ltoes 5.44134
512
root 17.7213 17.7069 15.5313 215.612 93.2019 213.541
lowerback 4.32713 1.23058 -2.35961
upperback -0.498351 1.52524 0.321451
thorax -3.01003 0.801712 1.54873
lowerneck -17.2595 -3.93765 -9.10821
upperneck 22.6261 -3.78828 4.23454
head 10.367 -1.95109 2.50926
rclavicle 1.67725e-015 2.5842e-015
rhumerus -30.4949 -16.2713 -79.7942
rradius 29.7271
rwrist 2.92273
rhand -15.4468 9.68005
rfingers 7.12502
rthumb 10.7338 -20.0257
lclavicle 1.67725e-015 2.5842e-015
lhumerus -32.6379 19.5786 78.3518
lradius 20.5214
lwrist -11.6724
lhand -16.8142 23.6914
lfingers 7.12502
lthumb 9.41464 53.4611
rfemur -3.37715 3.25254 19.6692
rtibia 51.8084
rfoot 16.0072 0.0147438
rtoes 14.8294
lfemur -16.6774 1.46946 -25.6184
ltibia 19.0648
lfoot -2.97416 -1.59259
ltoes 5.62179
513
root 17.861 17.7164 15.5179 221.022 93.5519 218.736
lowerback 3.97263 1.22342 -2.81
upperback -0.48375 1.50038 0.22445
thorax -2.80398 0.79335 1.71067
lowerneck -17.3208 -4.01204 -9.20961
upperneck 22.4748 -3.86428 4.24596
head 10.3325 -1.99347 2.51633
rclavicle -1.23619e-014 -5.36719e-015
rhumerus -30.5255 -16.8539 -79.2886
rradius 28.8306
rwrist 4.42888
rhand -14.2498 10.4809
rfingers 7.12502
rthumb 11.8882 -19.1616
lclavicle -1.23619e-014 -5.36719e-015
lhumerus -32.1357 18.5177 79.048
lradius 20.6605
lwrist -11.0693
lhand -17.6645 24.3273
lfingers 7.12502
lthumb 8.5941 54.1324
rfemur -5.11413 3.32161 19.0522
rtibia 54.1558
rfoot 16.2735 -0.459947
rtoes 15.2317
lfemur -16.2461 1.61837 -26.2135
ltibia 18.7442
lfoot -3.25786 -1.73996
ltoes 5.71502
514
root 17.9965 17.7176 15.5068 224.624 93.748 222.44
lowerback 4.03513 1.12058 -3.01852
upperback -0.406022 1.35118 0.174689
thorax -2.75513 0.720461 1.78593
lowerneck -17.5481 -4.0042 -9.61552
upperneck 22.5187 -3.76554 4.43749
head 10.3981 -1.95997 2.66513
rclavicle 1.02747e-014 -1.59028e-015
rhumerus -30.4966 -17.0244 -79.0264
rradius 28.0771
rwrist 5.79516
rhand -13.8633 10.866
rfingers 7.12502
rthumb 12.2609 -18.7546
lclavicle 1.02747e-014 -1.59028e-015
lhumerus -31.7631 18.4376 79.2425
lradius 20.7368
lwrist -11.7086
lhand -17.0005 24.512
lfingers 7.12502
lthumb 9.23484 54.2898
rfemur -6.41332 3.10482 18.6467
rtibia 56.3759
rfoot 15.6957 -1.28297
rtoes 13.5378
lfemur -15.3994 1.92234 -26.6305
ltibia 18.241
lfoot -3.42371 -2.09653
ltoes 5.15253
515
root 18.1324 17.7128 15.5083 229.094 94.1197 227.129
lowerback 4.22708 1.11367 -3.59331
upperback -0.375221 1.3039 0.0450805
thorax -2.83926 0.705957 1.97466
lowerneck -17.6369 -3.96625 -9.5754
upperneck 22.5912 -3.71788 4.44587
head 10.4364 -1.93347 2.66872
rclavicle 1.13804e-014 -1.07344e-014
rhumerus -30.5982 -17.4512 -78.8977
rradius 27.3495
rwrist 6.76315
rhand -13.4005 10.8484
rfingers 7.12502
rthumb 12.7071 -18.745
lclavicle 1.13804e-014 -1.07344e-014
lhumerus -31.5948 18.2498 79.1221
lradius 20.9471
lwrist -12.3555
lhand -16.669 24.151
lfingers 7.12502
lthumb 9.55471 53.9143
rfemur -7.49137 3.01434 18.115
rtibia 58.4121
rfoot 14.5311 -2.50499
rtoes 12.8969
lfemur -14.5502 2.65752 -27.2553
ltibia 17.9975
lfoot -3.84466 -2.6397
ltoes 4.49514
516
root 18.2727 17.7076 15.5113 232.571 94.586 230.856
lowerback 4.38514 1.08544 -4.20578
upperback -0.293122 1.22716 -0.0855441
thorax -2.84946 0.675777 2.18681
lowerneck -17.9244 -3.9472 -9.60983
upperneck 22.7828 -3.67266 4.51534
head 10.5593 -1.90692 2.70646
rclavicle 7.16867e-015 -3.97569e-016
rhumerus -30.6308 -17.9565 -78.7066
rradius 26.7053
rwrist 7.91136
rhand -12.2712 10.8653
rfingers 7.12502
rthumb 13.7956 -18.6572
lclavicle 7.16867e-015 -3.97569e-016
lhumerus -31.3008 17.7494 79.3315
lradius 21.1084
lwrist -12.2621
lhand -17.7325 24.3118
lfingers 7.12502
lthumb 8.52853 54.1195
rfemur -8.47086 3.01385 17.5451
rtibia 60.2689
rfoot 13.1048 -3.93582
rtoes 13.0783
lfemur -13.7207 3.31417 -27.9305
ltibia 17.9002
lfoot -4.42224 -2.95313
ltoes 2.74478
